# xmcd
#
# Track frame offsets:
#	150
#	10562
#	20010
#	29219
#	40475
#	51486
#	62879
#	71745
#	83072
#	94017
#	104715
#	116240
#	123501
#	133858
#	145400
#	153065
#	163514
#	174956
#	183793
#	194062
#	203868
#	213665
#	224686
#	236393
#	246436
#	258352
#	268952
#	278856
#	288568
#	300116
#	310457
#	319987
#	328671
#	338740
#	351221
#
# Disc length: 4843 seconds
#
# Revision: 0
# Processed by: cddbd v1.5.1PL0 Copyright (c) Steve Scherf et al.
# Submitted via: dBpowerAMP V4.0
#
DISCID=2f12e923
DTITLE=Various Artist - Western Dance Vol 4
DYEAR=1900
DGENRE=Rock and Roll
TTITLE0=Johnny Horton - Tennessee Jive
TTITLE1=Eddie Dugosh - Bad Luck
TTITLE2=Stoney Calhoun - Bounce Baby Bounce
TTITLE3=Eddie Jackson - Rock'n' Roll Baby
TTITLE4=Bobby Burnell - Move Over Big Dog
TTITLE5=Ray Pennington - Boogie Woogie Country Girl
TTITLE6=Jimmy Work - Tennessee Border
TTITLE7=Waylon Jennings - Sally Was a Good Girl
TTITLE8=Merrill E Moore - Fly Right Boogie
TTITLE9=Merrill E Moore - Cow Cow Boogie
TTITLE10=Onie Wheeler - Onie's Bop
TTITLE11=Collins Kids - Whistle Bait
TTITLE12=Faye Darling - Funny Bunny
TTITLE13=Harvy Hunt - Big Dog Little Dog
TTITLE14=Connie Dycus - Jake Legged Preacher
TTITLE15=Johnny Nace - You Got The Blues
TTITLE16=Jimmy Smith - Pinch Me Quick
TTITLE17=Bill Sherrell - Yes No Or Maybe
TTITLE18=Lou Millett - Slip Slip Slippin' In
TTITLE19=Merrill E Moore - Boogie My Blues Away
TTITLE20=Ella Mae Morse - Tennessee Saturday Night
TTITLE21=Boyd Bennett - Tennessee Rock 'n' Roll
TTITLE22=Hank Thompson - Shotgun Boogie
TTITLE23=Jerry Jericho - When I'm Gone
TTITLE24=Jerry Kerlee and Earl Kelly - Lovey Dovey
TTITLE25=Wayne Prince - She Don't Cry In Vain
TTITLE26=Pee Wee King - Hoot Scoot
TTITLE27=Pee Wee King - Catty Town
TTITLE28=Everett Carpenter - Let Your Hair Down Baby
TTITLE29=Leonard Clark - Come To Your Tommy Now
TTITLE30=Acorn Sisters - Real Gone 
TTITLE31=Sandy Lee - Ballin' Keen
TTITLE32=Benny Cliff - Crazy Mama
TTITLE33=Al Burnette - Humpty Dumpty
TTITLE34=Unknown - Dixie
EXTD=
EXTT0=
EXTT1=
EXTT2=
EXTT3=
EXTT4=
EXTT5=
EXTT6=
EXTT7=
EXTT8=
EXTT9=
EXTT10=
EXTT11=
EXTT12=
EXTT13=
EXTT14=
EXTT15=
EXTT16=
EXTT17=
EXTT18=
EXTT19=
EXTT20=
EXTT21=
EXTT22=
EXTT23=
EXTT24=
EXTT25=
EXTT26=
EXTT27=
EXTT28=
EXTT29=
EXTT30=
EXTT31=
EXTT32=
EXTT33=
EXTT34=
PLAYORDER=
